# AST/ASF file generated using VICON BodyLanguage
# -----------------------------------------------
:version 1.10
:name VICON
:units
  mass 1.0
  length 0.45
  angle deg
:documentation
   .ast/.asf automatically generated from VICON data using
   VICON BodyBuilder and BodyLanguage model FoxedUp or BRILLIANT.MOD
:root
   order TX TY TZ RX RY RZ
   axis XYZ
   position 0 0 0  
   orientation 0 0 0 
:bonedata
  begin
     id 1 
     name lhipjoint
     direction 0.671379 -0.66392 0.329334 
     length 2.38647 
     axis 0 0 0  XYZ
  end
  begin
     id 2 
     name lfemur
     direction 0.34202 -0.939693 0  
     length 6.48179  
     axis 0 0 20  XYZ
    dof rx ry rz
    limits (-160.0 20.0)
           (-70.0 70.0)
           (-60.0 70.0)
  end
  begin
     id 3 
     name ltibia
     direction 0.34202 -0.939693 0   
     length 6.86524   
     axis 0 0 20   XYZ
    dof rx
    limits (-10.0 170.0)
  end
  begin
     id 4 
     name lfoot
     direction 0.204886 -0.562919 0.800715   
     length 1.73031   
     axis -90 7.62852e-016 20   XYZ
    dof rx rz
    limits (-45.0 90.0)
           (-70.0 20.0)
  end
  begin
     id 5 
     name ltoes
     direction 1.53548e-011 -4.21841e-011 1   
     length 0.828161   
     axis -90 7.62852e-016 20   XYZ
    dof rx
    limits (-90.0 20.0)
  end
  begin
     id 6 
     name rhipjoint
     direction -0.662732 -0.670855 0.332775   
     length 2.3618  
     axis 0 0 0  XYZ 
  end
  begin
     id 7 
     name rfemur
     direction -0.34202 -0.939693 0   
     length 6.3025   
     axis 0 0 -20   XYZ
    dof rx ry rz
    limits (-160.0 20.0)
           (-70.0 70.0)
           (-70.0 60.0)
  end
  begin
     id 8 
     name rtibia
     direction -0.34202 -0.939693 0   
     length 6.8732   
     axis 0 0 -20   XYZ
    dof rx
    limits (-10.0 170.0)
 end
 begin
     id 9 
     name rfoot
     direction -0.173856 -0.477665 0.861168   
     length 1.54784  
     axis -90 -7.62852e-016 -20   XYZ
    dof rx rz
    limits (-45.0 90.0)
           (-20.0 70.0)
  end
  begin
     id 10 
     name rtoes
     direction -1.53562e-011 -4.21802e-011 1   
     length 0.759618   
     axis -90 -7.62852e-016 -20   XYZ
    dof rx
    limits (-90.0 20.0)
  end
  begin
     id 11 
     name lowerback
     direction -0.0278357 0.999497 -0.0151789   
     length 1.97203   
     axis 0 0 0   XYZ
    dof rx ry rz
    limits (-20.0 45.0)
           (-30.0 30.0)
           (-30.0 30.0)
  end
  begin
     id 12 
     name upperback
     direction -0.00360622 0.997542 0.0699804   
     length 1.94709   
     axis 0 0 0   XYZ
    dof rx ry rz
    limits (-20.0 45.0)
           (-30.0 30.0)
           (-30.0 30.0)
  end
  begin
     id 13 
     name thorax
     direction 0.00907706 0.997048 0.0762461   
     length 1.95722   
     axis 0 0 0   XYZ
    dof rx ry rz
    limits (-20.0 45.0)
           (-30.0 30.0)
           (-30.0 30.0)
  end
  begin
     id 14 
     name lowerneck
     direction -0.0481835 0.99872 -0.0153927   
     length 1.63078   
     axis 0 0 0   XYZ
    dof rx ry rz
    limits (-20.0 45.0)
           (-30.0 30.0)
           (-30.0 30.0)
  end
  begin
     id 15 
     name upperneck
     direction 0.0859716 0.979226 -0.183644   
     length 1.62591   
     axis 0 0 0   XYZ
    dof rx ry rz
    limits (-20.0 45.0)
           (-30.0 30.0)
           (-30.0 30.0)
  end
  begin
     id 16
     name head
     direction 0.0324821 0.997629 -0.0606773  
     length 1.64811  
     axis 0 0 0   XYZ
    dof rx ry rz
    limits (-20.0 45.0)
           (-30.0 30.0)
           (-30.0 30.0)
  end
  begin
     id 17 
     name lclavicle
     direction 0.939609 0.311019 0.142835  
     length 3.70647  
     axis 0 0 0   XYZ
    dof ry rz
    limits (-20.0 10.0)
           (0.0 20.0)
  end
  begin
     id 18 
     name lhumerus
     direction 1 -4.48963e-011 -1.59838e-027   
     length 4.59207   
     axis 180 -30 -90   XYZ
    dof rx ry rz
    limits (-60.0 90.0)
           (-90.0 90.0)
           (-90.0 90.0)
  end
  begin
     id 19
     name lradius
     direction 1 -4.48957e-011 -1.3483e-026   
     length 2.98109   
     axis 180 -30 -90   XYZ
    dof rx
    limits (-10.0 170.0)
  end
  begin
     id 20
     name lwrist
     direction 1 -4.48954e-011 -3.11579e-026   
     length 1.49055   
     axis 2.00652e-014 90 90   XYZ
    dof ry
    limits (-180.0 0.0)
 end
  begin
     id 21 
     name lhand
     direction 1 -4.4911e-011 -6.23158e-026   
     length 0.480203   
     axis 3.97628e-014 90 90   XYZ
    dof rx rz
    limits (-90.0 90.0)
           (-45.0 45.0)
  end
  begin
     id 22 
     name lfingers
     direction 1 -4.48893e-011 -1.24632e-025   
     length 0.387152   
     axis 7.95256e-014 90 90   XYZ
    dof rx
    limits (0.0 90.0)
  end
  begin
     id 23
     name lthumb
     direction 0.707107 -6.35013e-011 0.707107   
     length 0.555875   
     axis -90 45 2.85299e-015   XYZ
    dof rx rz
    limits (-45.0 45.0)
           (-45.0 45.0)
  end
  begin
     id 24 
     name rclavicle
     direction -0.950396 0.30392 0.0661859   
     length 3.70894  
     axis 0 0 0   XYZ 
    dof ry rz
    limits (-10.0 20.0)
           (-20.0 0.0)
  end
  begin
     id 25 
     name rhumerus
     direction -1 -4.48957e-011 -2.96677e-027  
     length 4.76508   
     axis 180 30 90   XYZ
    dof rx ry rz
    limits (-90.0 60.0)
           (-90.0 90.0)
           (-90.0 90.0)
  end
  begin
     id 26 
     name rradius
     direction -1 -4.48974e-011 -1.44501e-026   
     length 2.78902   
     axis 180 30 90   XYZ
    dof rx
    limits (-10.0 170.0)
  end
  begin
     id 27 
     name rwrist
     direction -1 -4.48978e-011 -3.11579e-026   
     length 1.39451   
     axis 2.00652e-014 -90 -90   XYZ
    dof ry
    limits (-180.0 0.0)
  end
  begin
     id 28
     name rhand
     direction -1 -4.48956e-011 -6.23158e-026   
     length 0.721303   
     axis 3.97628e-014 -90 -90   XYZ
    dof rx rz
    limits (-90.0 90.0)
           (-45.0 45.0)
  end
  begin
     id 29
     name rfingers
     direction -1 -4.4899e-011 -1.24632e-025   
     length 0.581533   
     axis 7.95256e-014 -90 -90   XYZ
    dof rx
    limits (0.0 90.0)
  end
  begin
     id 30
     name rthumb
     direction -0.707107 -6.34911e-011 0.707107   
     length 0.834968   
     axis -90 -45 -2.85299e-015   XYZ
    dof rx rz
    limits (-45.0 45.0)
           (-45.0 45.0)
  end
:hierarchy
  begin
    root lhipjoint rhipjoint lowerback
    lhipjoint lfemur
    lfemur ltibia
    ltibia lfoot
    lfoot ltoes
    rhipjoint rfemur
    rfemur rtibia
    rtibia rfoot
    rfoot rtoes
    lowerback upperback
    upperback thorax
    thorax lowerneck lclavicle rclavicle
    lowerneck upperneck
    upperneck head
    lclavicle lhumerus
    lhumerus lradius
    lradius lwrist
    lwrist lhand lthumb
    lhand lfingers
    rclavicle rhumerus
    rhumerus rradius
    rradius rwrist
    rwrist rhand rthumb
    rhand rfingers
  end

#!OML:ASF I:\salsa\salsa 7_09\Patient 1\Session 1\dancerfemale.ASF
:FULLY-SPECIFIED
:DEGREES
61
root 20.3762 15.9782 -0.705372 -0.865059 -80.9623 7.90908
lowerback -3.86563 2.71227 -7.32173
upperback -6.21079 3.55638 0.524661
thorax -4.81434 2.06912 4.61761
lowerneck -0.490123 -4.79957 -12.7068
upperneck 7.25604 -7.10602 12.7411
head 3.12367 -3.55399 5.74013
rclavicle -1.07468e-015 1.05356e-014
rhumerus -50.7074 -36.8261 -63.9488
rradius 32.1892
rwrist -0.0226496
rhand 6.02464 42.0288
rfingers 7.12502
rthumb 31.3468 14.694
lclavicle -1.07468e-015 1.05356e-014
lhumerus -44.7866 28.1422 78.2861
lradius 37.8104
lwrist -13.1268
lhand -20.0827 25.2047
lfingers 7.12502
lthumb 6.25997 55.0922
rfemur -10.076 -2.61225 17.1987
rtibia 23.8941
rfoot -24.7943 -17.2113
rtoes -25.0818
lfemur -16.2703 -5.55069 -22.4785
ltibia 33.4561
lfoot -26.4702 -9.58969
ltoes 18.5978
62
root 20.3741 15.9767 -0.6947 -1.28527 -81.0296 8.30047
lowerback -3.79261 2.70113 -7.35873
upperback -6.18761 3.53777 0.513923
thorax -4.83048 2.06156 4.62432
lowerneck -0.547629 -4.79929 -12.7438
upperneck 7.3132 -7.10171 12.7279
head 3.15054 -3.55108 5.7407
rclavicle -4.1838e-014 -1.92324e-014
rhumerus -50.5524 -36.8217 -64.0487
rradius 32.0742
rwrist 0.229935
rhand 5.41875 42.7178
rfingers 7.12502
rthumb 30.7693 15.2726
lclavicle -4.1838e-014 -1.92324e-014
lhumerus -44.7239 27.9732 78.4571
lradius 37.9188
lwrist -13.0493
lhand -20.2605 25.2406
lfingers 7.12502
lthumb 6.08832 55.1331
rfemur -10.0472 -2.62005 17.0944
rtibia 23.9085
rfoot -24.7826 -17.1786
rtoes -25.2729
lfemur -16.231 -5.6615 -22.5883
ltibia 33.5076
lfoot -26.532 -9.44553
ltoes 18.72
63
root 20.374 15.9748 -0.68325 -1.40315 -81.1605 8.36609
lowerback -3.72095 2.6853 -7.35678
upperback -6.1382 3.51643 0.550608
thorax -4.81765 2.05103 4.66003
lowerneck -0.660071 -4.78708 -12.834
upperneck 7.41307 -7.07743 12.7248
head 3.19888 -3.53741 5.75299
rclavicle 2.81032e-014 -1.49089e-015
rhumerus -50.3407 -36.7347 -64.2297
rradius 32.087
rwrist 0.379419
rhand 4.96911 43.2863
rfingers 7.12502
rthumb 30.3405 15.7612
lclavicle 2.81032e-014 -1.49089e-015
lhumerus -44.6675 28.0645 78.536
lradius 37.9224
lwrist -13.1374
lhand -20.3359 25.0784
lfingers 7.12502
lthumb 6.01555 54.973
rfemur -10.02 -2.54575 17.0553
rtibia 23.9489
rfoot -24.7625 -17.1669
rtoes -25.6044
lfemur -16.1771 -5.65486 -22.6347
ltibia 33.5753
lfoot -26.6351 -9.37141
ltoes 18.9191
64
root 20.3769 15.9725 -0.672099 -0.140053 -81.5465 6.98295
lowerback -3.62052 2.76453 -7.14525
upperback -6.05627 3.62387 0.655067
thorax -4.79228 2.09657 4.64623
lowerneck -0.766415 -4.8111 -12.8058
upperneck 7.4587 -7.09138 12.6074
head 3.22736 -3.54256 5.70733
rclavicle -6.92019e-014 -7.40473e-015
rhumerus -50.0169 -36.5805 -64.5269
rradius 32.192
rwrist 0.250861
rhand 4.79022 43.6211
rfingers 7.12502
rthumb 30.1699 16.0647
lclavicle -6.92019e-014 -7.40473e-015
lhumerus -44.5775 28.2089 78.5765
lradius 37.8898
lwrist -13.1544
lhand -20.2538 24.7541
lfingers 7.12502
lthumb 6.09484 54.6465
rfemur -10.0468 -2.32498 17.2632
rtibia 24.0783
rfoot -24.6887 -17.0484
rtoes -25.934
lfemur -16.0738 -5.42394 -22.4392
ltibia 33.653
lfoot -26.7594 -9.2582
ltoes 19.1418
65
root 20.3846 15.9688 -0.663102 0.658136 -82.147 6.05616
lowerback -3.43197 2.94515 -7.00981
upperback -5.99785 3.85801 0.711685
thorax -4.86197 2.21092 4.61544
lowerneck -0.839186 -4.86993 -12.7126
upperneck 7.51196 -7.15943 12.4788
head 3.25675 -3.57461 5.64515
rclavicle 5.93807e-014 1.43125e-014
rhumerus -49.7131 -36.294 -64.9911
rradius 32.3895
rwrist -0.157405
rhand 4.46802 44.0456
rfingers 7.12502
rthumb 29.8624 16.4335
lclavicle 5.93807e-014 1.43125e-014
lhumerus -44.4755 28.1325 78.6643
lradius 37.8508
lwrist -12.9373
lhand -20.1602 24.3574
lfingers 7.12502
lthumb 6.18516 54.2471
rfemur -10.1873 -2.02708 17.379
rtibia 24.293
rfoot -24.5041 -16.8246
rtoes -26.5066
lfemur -15.9688 -5.03321 -22.3492
ltibia 33.7434
lfoot -26.9204 -9.02911
ltoes 19.1669
66
root 20.3933 15.9624 -0.649184 -0.299183 -82.6027 6.9612
lowerback -3.26504 3.06375 -7.02246
upperback -5.94851 4.00716 0.673699
thorax -4.92243 2.28625 4.57037
lowerneck -0.930783 -4.91045 -12.8124
upperneck 7.59393 -7.21609 12.5667
head 3.3104 -3.59991 5.68394
rclavicle 2.48294e-014 8.84592e-015
rhumerus -49.4434 -36.0521 -65.4108
rradius 32.5566
rwrist -0.293757
rhand 4.12888 44.6121
rfingers 7.12502
rthumb 29.5387 16.9422
lclavicle 2.48294e-014 8.84592e-015
lhumerus -44.3915 28.0106 78.7929
lradius 37.8361
lwrist -12.6769
lhand -20.0925 24.0953
lfingers 7.12502
lthumb 6.2505 53.9831
rfemur -10.4489 -1.95915 17.1832
rtibia 24.6244
rfoot -24.3142 -16.5343
rtoes -27.1189
lfemur -15.9318 -4.85857 -22.5667
ltibia 33.8289
lfoot -27.0985 -8.70141
ltoes 18.9862
67
root 20.4009 15.9556 -0.631634 -1.00392 -82.9291 7.61738
lowerback -3.06034 3.11521 -6.92827
upperback -5.90079 4.0638 0.633027
thorax -4.98343 2.31051 4.46313
lowerneck -1.08668 -4.93549 -12.9588
upperneck 7.70383 -7.24575 12.6698
head 3.38194 -3.61031 5.73516
rclavicle 3.37996e-014 -1.2424e-015
rhumerus -49.1348 -35.9204 -65.7507
rradius 32.6498
rwrist -0.15661
rhand 4.05846 44.8649
rfingers 7.12502
rthumb 29.4715 17.1832
lclavicle 3.37996e-014 -1.2424e-015
lhumerus -44.3608 28.0136 78.8614
lradius 37.8846
lwrist -12.5519
lhand -20.1611 24.1427
lfingers 7.12502
lthumb 6.18427 54.0324
rfemur -10.7612 -2.11825 17.0187
rtibia 25.1106
rfoot -24.2726 -16.1089
rtoes -27.5432
lfemur -15.8984 -4.80819 -22.7439
ltibia 33.897
lfoot -27.2118 -8.39731
ltoes 18.8946
68
root 20.4083 15.9486 -0.615475 -1.85754 -83.2169 8.26463
lowerback -2.67485 3.16454 -6.87134
upperback -5.81489 4.10955 0.609969
thorax -5.10946 2.33355 4.38577
lowerneck -1.15156 -4.93172 -13.0343
upperneck 7.69039 -7.23175 12.7111
head 3.39125 -3.60169 5.75999
rclavicle 3.73467e-014 -4.96962e-017
rhumerus -48.7573 -35.6122 -66.2497
rradius 32.7719
rwrist -0.360237
rhand 3.93028 45.0754
rfingers 7.12502
rthumb 29.3491 17.3722
lclavicle 3.73467e-014 -4.96962e-017
lhumerus -44.3672 27.9893 78.9107
lradius 37.9351
lwrist -12.4496
lhand -20.3472 24.2123
lfingers 7.12502
lthumb 6.00457 54.1072
rfemur -10.9458 -2.30525 16.8692
rtibia 25.7174
rfoot -24.2083 -15.7109
rtoes -28.3782
lfemur -15.6896 -4.70175 -22.9058
ltibia 33.9596
lfoot -27.2741 -8.22201
ltoes 19.236
69
root 20.4161 15.9372 -0.596101 -3.70768 -83.4225 9.73609
lowerback -2.19386 3.20915 -6.86988
upperback -5.62292 4.14863 0.564077
thorax -5.17894 2.35211 4.31328
lowerneck -1.07443 -4.88937 -13.191
upperneck 7.4792 -7.17459 12.9074
head 3.32049 -3.57419 5.85424
rclavicle -1.7024e-014 -4.77083e-015
rhumerus -48.3247 -35.1674 -66.918
rradius 33.0271
rwrist -0.750568
rhand 3.7132 45.4753
rfingers 7.12502
rthumb 29.1418 17.736
lclavicle -1.7024e-014 -4.77083e-015
lhumerus -44.3093 27.8579 79.0374
lradius 37.9783
lwrist -12.2794
lhand -20.5202 23.97
lfingers 7.12502
lthumb 5.83761 53.8696
rfemur -10.9705 -2.48837 16.5967
rtibia 26.4037
rfoot -24.1316 -15.4393
rtoes -29.1178
lfemur -15.2902 -4.61348 -23.2004
ltibia 34.0341
lfoot -27.3575 -8.09056
ltoes 19.6906
70
root 20.425 15.92 -0.57177 -6.54524 -83.6057 12.1064
lowerback -1.6632 3.24041 -6.85058
upperback -5.34702 4.16883 0.459447
thorax -5.17858 2.35522 4.17013
lowerneck -1.16614 -4.91141 -13.1177
upperneck 7.33695 -7.17634 12.8516
head 3.28981 -3.5704 5.82186
rclavicle -3.99712e-014 -6.36111e-015
rhumerus -47.8041 -34.8151 -67.6678
rradius 33.3023
rwrist -0.944435
rhand 3.62248 45.7196
rfingers 7.12502
rthumb 29.0552 17.9653
lclavicle -3.99712e-014 -6.36111e-015
lhumerus -44.1406 27.7291 79.1677
lradius 38.0071
lwrist -12.1067
lhand -20.6501 23.6776
lfingers 7.12502
lthumb 5.71215 53.5806
rfemur -10.9426 -2.68062 16.1938
rtibia 27.207
rfoot -24.3477 -15.0961
rtoes -28.5217
lfemur -14.7775 -4.62515 -23.6402
ltibia 34.0826
lfoot -27.4561 -7.83443
ltoes 19.8943
